<?xml version="1.0" encoding="UTF-8" standalone="no"?>
<!-- Created with Inkscape (http://www.inkscape.org/) -->

<svg
   xmlns:dc="http://purl.org/dc/elements/1.1/"
   xmlns:cc="http://creativecommons.org/ns#"
   xmlns:rdf="http://www.w3.org/1999/02/22-rdf-syntax-ns#"
   xmlns:svg="http://www.w3.org/2000/svg"
   xmlns="http://www.w3.org/2000/svg"
   xmlns:sodipodi="http://sodipodi.sourceforge.net/DTD/sodipodi-0.dtd"
   xmlns:inkscape="http://www.inkscape.org/namespaces/inkscape"
   width="112"
   height="112"
   id="svg2"
   version="1.1"
   inkscape:version="0.48.2 r9819"
   sodipodi:docname="hud_icons.svg"
   inkscape:export-filename="C:\Users\sponaas\Desktop\SHARK_RODEO\ART\hud_sprint_active.png"
   inkscape:export-xdpi="90"
   inkscape:export-ydpi="90">
  <defs
     id="defs4" />
  <sodipodi:namedview
     id="base"
     pagecolor="#ffffff"
     bordercolor="#666666"
     borderopacity="1.0"
     inkscape:pageopacity="0.0"
     inkscape:pageshadow="2"
     inkscape:zoom="5.6"
     inkscape:cx="35.285983"
     inkscape:cy="36.626778"
     inkscape:document-units="px"
     inkscape:current-layer="layer2"
     showgrid="false"
     borderlayer="true"
     inkscape:window-width="1920"
     inkscape:window-height="1028"
     inkscape:window-x="-8"
     inkscape:window-y="-8"
     inkscape:window-maximized="1" />
  <metadata
     id="metadata7">
    <rdf:RDF>
      <cc:Work
         rdf:about="">
        <dc:format>image/svg+xml</dc:format>
        <dc:type
           rdf:resource="http://purl.org/dc/dcmitype/StillImage" />
        <dc:title></dc:title>
      </cc:Work>
    </rdf:RDF>
  </metadata>
  <g
     inkscape:label="sprint_inactive"
     inkscape:groupmode="layer"
     id="layer1"
     transform="translate(0,-940.36218)"
     style="display:none"
     sodipodi:insensitive="true">
    <rect
       style="color:#000000;fill:#ffffff;fill-opacity:1;fill-rule:evenodd;stroke:none;stroke-width:1;marker:none;visibility:visible;display:inline;overflow:visible;enable-background:accumulate"
       id="rect3755"
       width="137.67857"
       height="128.75"
       x="-221.25"
       y="873.07648" />
    <path
       sodipodi:type="arc"
       style="fill:#000000;fill-opacity:0.50196078;fill-rule:evenodd;stroke:none"
       id="path2989"
       sodipodi:cx="88.571426"
       sodipodi:cy="53.07143"
       sodipodi:rx="67.85714"
       sodipodi:ry="62.142857"
       d="m 156.42857,53.07143 a 67.85714,62.142857 0 1 1 -135.714283,0 67.85714,62.142857 0 1 1 135.714283,0 z"
       transform="matrix(0.81713449,0,0,0.89511494,-16.0335,949.41072)" />
    <path
       style="fill:#ffffff;fill-opacity:1;fill-rule:evenodd;stroke:none"
       d="m 56.241071,940.74164 c -30.868771,0 -55.87499957,25.08192 -55.87499957,56 0,30.91806 25.00622857,55.96876 55.87499957,55.96876 30.868771,0 55.906249,-25.0507 55.906249,-55.96876 0,-30.91808 -25.037478,-56 -55.906249,-56 z m 0,6.28125 c 27.318369,0 49.468749,22.16925 49.468749,49.53125 0,27.36206 -22.15038,49.56246 -49.468749,49.56246 -27.318369,0 -49.4687496,-22.2004 -49.4687496,-49.56246 0,-27.362 22.1503806,-49.53125 49.4687496,-49.53125 z"
       id="path2985"
       inkscape:connector-curvature="0" />
    <path
       style="color:#000000;fill:#ffffff;fill-opacity:1;fill-rule:evenodd;stroke:none;stroke-width:1;marker:none;visibility:visible;display:inline;overflow:visible;enable-background:accumulate"
       d="m 57.523382,955.83551 36.387817,22.91758 -74.551738,0.011 c 1.787391,-0.8732 36.8402,-22.34944 38.163921,-22.92892 z"
       id="rect3792"
       inkscape:connector-curvature="0"
       sodipodi:nodetypes="cccc" />
    <rect
       style="color:#000000;fill:#ffffff;fill-opacity:1;fill-rule:evenodd;stroke:none;stroke-width:1;marker:none;visibility:visible;display:inline;overflow:visible;enable-background:accumulate"
       id="rect3795"
       width="65.526222"
       height="12.866786"
       x="23.888649"
       y="981.86658"
       rx="3.8872001"
       ry="3.4542286" />
    <rect
       style="color:#000000;fill:#ffffff;fill-opacity:1;fill-rule:evenodd;stroke:none;stroke-width:1;marker:none;visibility:visible;display:inline;overflow:visible;enable-background:accumulate"
       id="rect3795-7"
       width="57.539402"
       height="11.9326"
       x="28.295763"
       y="997.18311"
       rx="3.4133995"
       ry="3.2034364" />
    <rect
       style="color:#000000;fill:#ffffff;fill-opacity:1;fill-rule:evenodd;stroke:none;stroke-width:1;marker:none;visibility:visible;display:inline;overflow:visible;enable-background:accumulate"
       id="rect3795-4"
       width="46.490406"
       height="9.6412449"
       x="33.697197"
       y="1011.8343"
       rx="2.7579417"
       ry="2.5882969" />
    <rect
       style="color:#000000;fill:#ffffff;fill-opacity:1;fill-rule:evenodd;stroke:none;stroke-width:1;marker:none;visibility:visible;display:inline;overflow:visible;enable-background:accumulate"
       id="rect3795-0"
       width="36.311272"
       height="7.5302815"
       x="38.973186"
       y="1023.8967"
       rx="2.1540871"
       ry="2.0215862" />
  </g>
  <g
     inkscape:groupmode="layer"
     id="layer2"
     inkscape:label="sprint_active"
     style="display:inline"
     sodipodi:insensitive="true">
    <rect
       style="color:#000000;fill:#000000;fill-opacity:1;fill-rule:evenodd;stroke:none;stroke-width:1;marker:none;visibility:visible;display:inline;overflow:visible;enable-background:accumulate"
       id="rect3755-1"
       width="137.67857"
       height="128.75"
       x="-221.60715"
       y="-67.732132" />
    <path
       style="fill:#999999;fill-opacity:1;fill-rule:evenodd;stroke:none"
       d="m 55.883927,-0.06697304 c -30.86877,0 -55.87499986,25.08191704 -55.87499986,56.00000104 0,30.91808 25.00622986,55.968752 55.87499986,55.968752 30.86877,0 55.906253,-25.050672 55.906253,-55.968752 0,-30.918084 -25.037483,-56.00000104 -55.906253,-56.00000104 z m 0,6.28124994 c 27.31837,0 49.468753,22.1692411 49.468753,49.5312511 0,27.36201 -22.150383,49.562502 -49.468753,49.562502 -27.31837,0 -49.4687499,-22.200492 -49.4687499,-49.562502 0,-27.36201 22.1503799,-49.5312511 49.4687499,-49.5312511 z"
       id="path2985-7"
       inkscape:connector-curvature="0" />
    <path
       style="color:#000000;fill:#999999;fill-opacity:1;fill-rule:evenodd;stroke:none;stroke-width:1;marker:none;visibility:visible;display:inline;overflow:visible;enable-background:accumulate"
       d="m 57.166237,15.026897 36.38782,22.917581 -74.55174,0.011 c 1.78739,-0.8732 36.8402,-22.349441 38.16392,-22.928921 z"
       id="rect3792-4"
       inkscape:connector-curvature="0"
       sodipodi:nodetypes="cccc" />
    <rect
       style="color:#000000;fill:#999999;fill-opacity:1;fill-rule:evenodd;stroke:none;stroke-width:1;marker:none;visibility:visible;display:inline;overflow:visible;enable-background:accumulate"
       id="rect3795-09"
       width="65.526222"
       height="12.866786"
       x="23.531498"
       y="41.057968"
       rx="3.8872001"
       ry="3.4542286" />
    <rect
       style="color:#000000;fill:#999999;fill-opacity:1;fill-rule:evenodd;stroke:none;stroke-width:1;marker:none;visibility:visible;display:inline;overflow:visible;enable-background:accumulate"
       id="rect3795-7-4"
       width="57.539402"
       height="11.9326"
       x="27.938602"
       y="56.374496"
       rx="3.4133995"
       ry="3.2034364" />
    <rect
       style="color:#000000;fill:#999999;fill-opacity:1;fill-rule:evenodd;stroke:none;stroke-width:1;marker:none;visibility:visible;display:inline;overflow:visible;enable-background:accumulate"
       id="rect3795-4-8"
       width="46.490406"
       height="9.6412449"
       x="33.340061"
       y="71.025681"
       rx="2.7579417"
       ry="2.5882969" />
    <rect
       style="color:#000000;fill:#999999;fill-opacity:1;fill-rule:evenodd;stroke:none;stroke-width:1;marker:none;visibility:visible;display:inline;overflow:visible;enable-background:accumulate"
       id="rect3795-0-8"
       width="36.311272"
       height="7.5302815"
       x="38.616062"
       y="83.08812"
       rx="2.1540871"
       ry="2.0215862" />
    <path
       sodipodi:type="arc"
       style="fill:#000000;fill-opacity:0.50196078;fill-rule:evenodd;stroke:none"
       id="path2989-2"
       sodipodi:cx="88.571426"
       sodipodi:cy="53.07143"
       sodipodi:rx="67.85714"
       sodipodi:ry="62.142857"
       d="m 156.42857,53.07143 a 67.85714,62.142857 0 1 1 -135.714283,0 67.85714,62.142857 0 1 1 135.714283,0 z"
       transform="matrix(0.81844611,0,0,0.89655172,-16.774948,8.2579935)" />
  </g>
</svg>
