<?xml version="1.0" encoding="UTF-8" standalone="no"?>
<!-- Created with Inkscape (http://www.inkscape.org/) -->

<svg
   xmlns:dc="http://purl.org/dc/elements/1.1/"
   xmlns:cc="http://creativecommons.org/ns#"
   xmlns:rdf="http://www.w3.org/1999/02/22-rdf-syntax-ns#"
   xmlns:svg="http://www.w3.org/2000/svg"
   xmlns="http://www.w3.org/2000/svg"
   xmlns:sodipodi="http://sodipodi.sourceforge.net/DTD/sodipodi-0.dtd"
   xmlns:inkscape="http://www.inkscape.org/namespaces/inkscape"
   width="256"
   height="256"
   id="svg2"
   version="1.1"
   inkscape:version="0.48.2 r9819"
   inkscape:export-filename="C:\Users\sponaas\Desktop\whirlpool_top_1.png"
   inkscape:export-xdpi="90"
   inkscape:export-ydpi="90"
   sodipodi:docname="New document 1">
  <defs
     id="defs4" />
  <sodipodi:namedview
     id="base"
     pagecolor="#ffffff"
     bordercolor="#666666"
     borderopacity="1.0"
     inkscape:pageopacity="0.0"
     inkscape:pageshadow="2"
     inkscape:zoom="0.49497475"
     inkscape:cx="-712.37803"
     inkscape:cy="319.49156"
     inkscape:document-units="px"
     inkscape:current-layer="layer2"
     showgrid="false"
     inkscape:window-width="1920"
     inkscape:window-height="1028"
     inkscape:window-x="-8"
     inkscape:window-y="-8"
     inkscape:window-maximized="1" />
  <metadata
     id="metadata7">
    <rdf:RDF>
      <cc:Work
         rdf:about="">
        <dc:format>image/svg+xml</dc:format>
        <dc:type
           rdf:resource="http://purl.org/dc/dcmitype/StillImage" />
        <dc:title></dc:title>
      </cc:Work>
    </rdf:RDF>
  </metadata>
  <g
     inkscape:label="Layer 1"
     inkscape:groupmode="layer"
     id="layer1"
     transform="translate(0,-796.36218)"
     style="display:none"
     sodipodi:insensitive="true">
    <path
       style="fill:#000080;fill-rule:evenodd;stroke:none"
       d="m 85.313891,1035.5783 c -11.195794,0 21.671269,-28.8984 14.334323,-45.55523 -7.336942,-16.65682 -11.874938,-39.66804 -11.874938,-65.08553 0,-25.41749 4.537996,-48.42871 11.874938,-65.08556 7.336946,-16.65683 65.899576,-43.2307 77.095386,-43.2307 11.19579,0 -27.09506,26.57387 -19.75812,43.2307 7.33694,16.65685 11.87494,39.66807 11.87494,65.08556 0,25.41749 -4.538,48.42871 -11.87494,65.08553 -7.33694,16.65683 -60.475788,45.55523 -71.671589,45.55523 z"
       id="path2985"
       inkscape:connector-curvature="0"
       sodipodi:nodetypes="sssssssss" />
    <path
       style="fill:#000080;fill-rule:evenodd;stroke:none"
       d="m 192.99032,1012.1146 c -6.07103,9.4068 -12.52927,-33.8788 -30.50303,-36.74654 -17.97379,-2.86773 -39.76886,-11.53291 -61.12491,-25.31582 -21.35606,-13.78287 -38.229557,-30.07381 -48.246303,-45.27071 -10.016734,-15.19691 -0.588233,-78.81183 5.482792,-88.21865 6.07103,-9.40684 7.635102,37.17548 25.608892,40.04324 17.973789,2.86775 39.768829,11.53292 61.124879,25.3158 21.35607,13.78287 38.2296,30.07381 48.24634,45.27073 10.01672,15.19689 5.48236,75.51515 -0.58866,84.92195 z"
       id="path2985-1"
       inkscape:connector-curvature="0"
       sodipodi:nodetypes="sssssssss" />
    <path
       style="fill:#000080;fill-rule:evenodd;stroke:none"
       d="m 8.9670677,947.04673 c -6.1288206,-9.36925 36.0470893,2.31623 45.9700643,-12.94205 9.922976,-15.25831 26.695872,-31.65279 47.966688,-45.5669 21.2708,-13.91408 43.01208,-22.71326 60.96788,-25.69161 17.9558,-2.97835 72.25278,31.4831 78.3816,40.85238 6.12883,9.36928 -37.07093,-8.12759 -46.99393,7.13071 -9.92299,15.25829 -26.69589,31.65281 -47.96669,45.56685 -21.27081,13.91409 -43.01211,22.71323 -60.967881,25.69158 C 68.36902,985.06604 15.095892,956.41605 8.9670677,947.04673 z"
       id="path2985-7"
       inkscape:connector-curvature="0"
       sodipodi:nodetypes="sssssssss" />
  </g>
  <g
     inkscape:groupmode="layer"
     id="layer2"
     inkscape:label="Layer2"
     style="display:none"
     sodipodi:insensitive="true">
    <path
       style="fill:#000080;fill-rule:evenodd;stroke:none"
       d="m 155.34953,246.96436 c -9.8274,5.36357 5.1782,-35.74839 -9.24178,-46.85447 C 131.68777,189.00383 116.68045,170.97913 104.5037,148.66824 92.326954,126.35736 85.286316,103.98463 83.746734,85.848721 82.20715,67.712826 120.88134,16.331319 130.70876,10.967747 c 9.8274,-5.3635625 -11.05268,36.306355 3.3673,47.412428 14.41999,11.106094 29.42731,29.130799 41.60406,51.441675 12.17675,22.3109 19.21738,44.68363 20.75695,62.81951 1.53958,18.13588 -31.26013,68.95944 -41.08754,74.323 z"
       id="path2985-4"
       inkscape:connector-curvature="0"
       sodipodi:nodetypes="sssssssss" />
    <path
       style="fill:#000080;fill-rule:evenodd;stroke:none"
       d="m 238.62467,174.78396 c -0.8225,11.16553 -27.22821,-23.73563 -44.379,-17.64219 -17.15082,6.09348 -40.43326,8.92874 -65.78208,7.06145 C 103.11478,162.33597 80.499126,156.11974 64.426275,147.57897 48.353449,139.03819 26.15359,78.68157 26.976067,67.516041 27.798544,56.35048 51.487629,96.49008 68.638461,90.396629 85.789293,84.303177 109.0717,81.467926 134.4205,83.335184 c 25.34882,1.867244 47.96451,8.083456 64.03735,16.624243 16.07282,8.540773 40.98931,63.659023 40.16682,74.824533 z"
       id="path2985-1-0"
       inkscape:connector-curvature="0"
       sodipodi:nodetypes="sssssssss" />
    <path
       style="fill:#000080;fill-rule:evenodd;stroke:none"
       d="m 45.921267,205.82884 c -9.868253,-5.28798 32.750944,-15.23593 34.151319,-33.38309 1.400371,-18.1472 8.269131,-40.57327 20.274294,-62.97697 12.00521,-22.403651 26.87378,-40.542956 41.20813,-51.759368 14.33435,-11.216401 78.50442,-6.978969 88.3727,-1.690963 9.86827,5.288 -36.4337,10.625344 -37.83409,28.772536 -1.40038,18.147185 -8.26914,40.573295 -20.27437,62.976905 -12.00521,22.40367 -26.87383,40.54295 -41.20814,51.75934 -14.33434,11.21639 -74.821605,11.58963 -84.6899,6.30159 z"
       id="path2985-7-9"
       inkscape:connector-curvature="0"
       sodipodi:nodetypes="sssssssss" />
  </g>
  <g
     inkscape:groupmode="layer"
     id="layer3"
     inkscape:label="TopLayer1"
     sodipodi:insensitive="true"
     style="display:inline">
    <path
       style="fill:#006a80;fill-opacity:1;fill-rule:evenodd;stroke:none"
       d="m 144.20163,204.00438 c 7.7044,0 -14.91309,-19.88645 -9.86417,-31.34886 5.04892,-11.46239 8.17175,-27.29758 8.17175,-44.78864 0,-17.49105 -3.12283,-33.326244 -8.17175,-44.788664 -5.04892,-11.4624 -45.348835,-29.74923 -53.053235,-29.74923 -7.70439,0 18.64548,18.28683 13.59656,29.74923 -5.04892,11.46242 -8.17175,27.297614 -8.17175,44.788664 0,17.49106 3.12283,33.32625 8.17175,44.78864 5.04892,11.46241 41.616455,31.34886 49.320845,31.34886 z"
       id="path2985-48"
       inkscape:connector-curvature="0"
       sodipodi:nodetypes="sssssssss" />
    <path
       style="fill:#006a80;fill-opacity:1;fill-rule:evenodd;stroke:none"
       d="m 70.104035,187.85782 c 4.17778,6.4733 8.62202,-23.31371 20.99068,-25.28715 12.368675,-1.97343 27.366965,-7.93638 42.063135,-17.42109 14.69619,-9.48469 26.3077,-20.69531 33.20073,-31.15306 6.89302,-10.45777 0.40479,-54.234414 -3.77299,-60.707724 -4.17778,-6.47332 -5.2541,25.58233 -17.62277,27.55578 -12.36868,1.97345 -27.36695,7.93639 -42.06312,17.42108 -14.696195,9.484694 -26.307725,20.695314 -33.200755,31.153084 -6.89301,10.45775 -3.77268,51.96579 0.40509,58.43908 z"
       id="path2985-1-8"
       inkscape:connector-curvature="0"
       sodipodi:nodetypes="sssssssss" />
    <path
       style="fill:#006a80;fill-opacity:1;fill-rule:evenodd;stroke:none"
       d="m 196.73974,143.08133 c 4.21755,-6.44745 -24.80582,1.59392 -31.63433,-8.90607 -6.82849,-10.50002 -18.37077,-21.78189 -33.0083,-31.35689 -14.63751,-9.574984 -29.59878,-15.630144 -41.955085,-17.679694 -12.35629,-2.04956 -49.72078,21.665114 -53.93833,28.112584 -4.21756,6.44748 25.51038,-5.593 32.33889,4.907 6.82851,10.5 18.37079,21.7819 33.008315,31.35686 14.63751,9.57498 29.5988,15.63012 41.95508,17.67967 12.35627,2.04955 49.0162,-17.66595 53.23376,-24.11346 z"
       id="path2985-7-2"
       inkscape:connector-curvature="0"
       sodipodi:nodetypes="sssssssss" />
  </g>
  <g
     inkscape:groupmode="layer"
     id="layer4"
     inkscape:label="TopLayer2"
     sodipodi:insensitive="true"
     style="display:none">
    <path
       style="fill:#006a80;fill-opacity:1;fill-rule:evenodd;stroke:none"
       d="m 92.749279,206.69858 c 5.976037,4.86257 0.983615,-24.83755 12.134321,-30.54196 11.15068,-5.7044 23.56723,-16.01627 34.6066,-29.5835 11.03935,-13.56721 18.61136,-27.821 21.92951,-39.8986 3.31815,-12.077595 -16.39954,-51.697091 -22.37558,-56.559674 -5.97604,-4.862573 2.92106,25.952443 -8.22963,31.656848 -11.15071,5.704424 -23.56727,16.016304 -34.606614,29.583516 -11.039372,13.56723 -18.611372,27.821 -21.929504,39.89858 -3.318144,12.07761 12.494858,50.5822 18.470897,55.44479 z"
       id="path2985-48-4"
       inkscape:connector-curvature="0"
       sodipodi:nodetypes="sssssssss" />
    <path
       style="fill:#006a80;fill-opacity:1;fill-rule:evenodd;stroke:none"
       d="m 45.465064,147.40802 c -0.845016,7.6579 21.402096,-12.64192 32.24158,-6.36626 10.839482,6.27569 26.236626,11.1165 43.622156,13.03492 17.38554,1.91845 33.4677,0.55127 45.41473,-3.20996 11.94703,-3.76126 34.54367,-41.81232 35.3887,-49.47023 0.84503,-7.657914 -20.22155,16.52726 -31.06104,10.25159 -10.83949,-6.27567 -26.23662,-11.11647 -43.62214,-13.034907 -17.38555,-1.918448 -33.467722,-0.551284 -45.414765,3.209967 -11.947012,3.76124 -35.724207,37.927 -36.569221,45.58488 z"
       id="path2985-1-8-5"
       inkscape:connector-curvature="0"
       sodipodi:nodetypes="sssssssss" />
    <path
       style="fill:#006a80;fill-opacity:1;fill-rule:evenodd;stroke:none"
       d="m 171.95249,192.6017 c 7.34068,-2.3392 -20.24703,-14.41969 -18.91668,-26.87394 1.33039,-12.45427 -0.50209,-28.49006 -5.81273,-45.15545 -5.31063,-16.66537 -13.09391,-30.804854 -21.38473,-40.193215 -8.29078,-9.388369 -52.240519,-14.576041 -59.581204,-12.236827 -7.340704,2.339202 23.317519,11.762401 21.987159,24.216663 -1.330359,12.454259 0.502108,28.490089 5.81277,45.155429 5.310637,16.66536 13.093945,30.80485 21.384735,40.1932 8.29078,9.38835 49.16996,17.23337 56.51068,14.89414 z"
       id="path2985-7-2-5"
       inkscape:connector-curvature="0"
       sodipodi:nodetypes="sssssssss" />
  </g>
</svg>
